<svg width="136" height="44" viewBox="0 0 136 44" fill="none" xmlns="http://www.w3.org/2000/svg">
<path d="M21.5742 16.2516L39.6009 27.0179L21.5742 37.7841L21.5742 16.2516Z" fill="#FCADBD"/>
<path d="M11.3598 10.1599L31.0355 21.911L11.3598 33.6621L11.3598 10.1599Z" fill="#3D64FD"/>
<path d="M22.0678 26.8714L22.0678 7.10031L38.62 16.9859L22.0678 26.8714Z" stroke="#FDEA3D"/>
<circle cx="80" cy="23" r="3" fill="#FCADBD"/>
<path d="M63.4038 27L60.2823 16.0909H62.8018L64.6076 23.6708H64.6982L66.6903 16.0909H68.8477L70.8345 23.6868H70.9304L72.7362 16.0909H75.2557L72.1342 27H69.8864L67.8089 19.8675H67.7237L65.6516 27H63.4038ZM84.7678 27V18.8182H86.9678V20.2457H87.053C87.2021 19.7379 87.4525 19.3544 87.8041 19.0952C88.1556 18.8324 88.5605 18.701 89.0186 18.701C89.1322 18.701 89.2547 18.7081 89.3861 18.7223C89.5175 18.7365 89.6329 18.756 89.7323 18.7809V20.7944C89.6258 20.7624 89.4784 20.734 89.2902 20.7092C89.102 20.6843 88.9298 20.6719 88.7735 20.6719C88.4397 20.6719 88.1414 20.7447 87.8786 20.8903C87.6194 21.0323 87.4134 21.2312 87.2607 21.4869C87.1116 21.7425 87.037 22.0373 87.037 22.3711V27H84.7678ZM92.9616 24.6456L92.967 21.9237H93.2972L95.918 18.8182H98.5227L95.0018 22.9304H94.4638L92.9616 24.6456ZM90.9055 27V16.0909H93.1747V27H90.9055ZM96.0192 27L93.6115 23.4364L95.1243 21.8331L98.6772 27H96.0192ZM101.905 22.2699V27H99.636V16.0909H101.841V20.2617H101.937C102.122 19.7788 102.42 19.4006 102.832 19.1271C103.244 18.8501 103.761 18.7116 104.382 18.7116C104.95 18.7116 105.446 18.8359 105.868 19.0845C106.294 19.3295 106.625 19.6829 106.859 20.1445C107.097 20.6026 107.214 21.1513 107.211 21.7905V27H104.941V22.1953C104.945 21.6911 104.817 21.2987 104.558 21.0181C104.302 20.7376 103.944 20.5973 103.482 20.5973C103.173 20.5973 102.9 20.663 102.662 20.7944C102.427 20.9258 102.243 21.1175 102.108 21.3697C101.976 21.6183 101.909 21.9183 101.905 22.2699ZM114.243 23.5163V18.8182H116.512V27H114.334V25.5138H114.248C114.064 25.9933 113.757 26.3786 113.327 26.6697C112.901 26.9609 112.381 27.1065 111.766 27.1065C111.219 27.1065 110.738 26.9822 110.323 26.7337C109.907 26.4851 109.582 26.1317 109.348 25.6737C109.117 25.2156 109 24.6669 108.996 24.0277V18.8182H111.266V23.6229C111.269 24.1058 111.399 24.4876 111.654 24.7681C111.91 25.0487 112.253 25.1889 112.682 25.1889C112.956 25.1889 113.212 25.1268 113.449 25.0025C113.687 24.8746 113.879 24.6864 114.025 24.4379C114.174 24.1893 114.247 23.8821 114.243 23.5163ZM118.37 27V16.0909H120.639V20.1925H120.708C120.808 19.9723 120.952 19.7486 121.14 19.5213C121.332 19.2905 121.58 19.0987 121.886 18.946C122.195 18.7898 122.578 18.7116 123.036 18.7116C123.633 18.7116 124.183 18.8679 124.688 19.1804C125.192 19.4893 125.595 19.9563 125.897 20.5813C126.199 21.2028 126.349 21.9822 126.349 22.9197C126.349 23.8324 126.202 24.603 125.907 25.2315C125.616 25.8565 125.218 26.3306 124.714 26.6538C124.213 26.9734 123.652 27.1332 123.031 27.1332C122.591 27.1332 122.216 27.0604 121.907 26.9148C121.602 26.7692 121.351 26.5863 121.156 26.3661C120.961 26.1424 120.811 25.9169 120.708 25.6896H120.607V27H118.37ZM120.591 22.9091C120.591 23.3956 120.659 23.82 120.794 24.1822C120.929 24.5444 121.124 24.8267 121.38 25.0291C121.635 25.228 121.946 25.3274 122.312 25.3274C122.681 25.3274 122.994 25.2262 123.249 25.0238C123.505 24.8178 123.699 24.5337 123.83 24.1715C123.965 23.8058 124.032 23.3849 124.032 22.9091C124.032 22.4368 123.967 22.0213 123.835 21.6626C123.704 21.304 123.51 21.0234 123.255 20.821C122.999 20.6186 122.685 20.5174 122.312 20.5174C121.942 20.5174 121.63 20.6151 121.374 20.8104C121.122 21.0057 120.929 21.2827 120.794 21.6413C120.659 22 120.591 22.4226 120.591 22.9091ZM134.671 21.1513L132.594 21.2791C132.558 21.1016 132.482 20.9418 132.365 20.7997C132.247 20.6541 132.093 20.5387 131.901 20.4535C131.713 20.3647 131.487 20.3203 131.225 20.3203C130.873 20.3203 130.577 20.3949 130.335 20.544C130.094 20.6896 129.973 20.8849 129.973 21.13C129.973 21.3253 130.051 21.4904 130.207 21.6254C130.364 21.7603 130.632 21.8686 131.012 21.9503L132.492 22.2486C133.288 22.4119 133.881 22.6747 134.272 23.0369C134.662 23.3991 134.858 23.875 134.858 24.4645C134.858 25.0007 134.699 25.4712 134.383 25.8761C134.071 26.2809 133.641 26.5969 133.094 26.8242C132.551 27.0479 131.924 27.1598 131.214 27.1598C130.131 27.1598 129.268 26.9343 128.625 26.4833C127.986 26.0288 127.611 25.4109 127.501 24.6296L129.733 24.5124C129.801 24.8427 129.964 25.0948 130.223 25.2688C130.483 25.4393 130.815 25.5245 131.219 25.5245C131.617 25.5245 131.937 25.4482 132.178 25.2955C132.423 25.1392 132.547 24.9386 132.551 24.6935C132.547 24.4876 132.46 24.3189 132.29 24.1875C132.12 24.0526 131.857 23.9496 131.502 23.8786L130.085 23.5962C129.286 23.4364 128.691 23.1594 128.3 22.7653C127.913 22.3711 127.72 21.8686 127.72 21.2578C127.72 20.7322 127.862 20.2795 128.146 19.8995C128.434 19.5195 128.837 19.2266 129.355 19.0206C129.877 18.8146 130.488 18.7116 131.187 18.7116C132.221 18.7116 133.034 18.93 133.627 19.3668C134.224 19.8036 134.572 20.3984 134.671 21.1513Z" fill="#1A1A1B"/>
<path d="M79.2654 27.1598C78.4379 27.1598 77.7224 26.984 77.1187 26.6325C76.5186 26.2773 76.0551 25.7837 75.7284 25.1516C75.4017 24.516 75.2384 23.7791 75.2384 22.9411C75.2384 22.0959 75.4017 21.3572 75.7284 20.7251C76.0551 20.0895 76.5186 19.5959 77.1187 19.2443C77.7224 18.8892 78.4379 18.7116 79.2654 18.7116C80.0928 18.7116 80.8066 18.8892 81.4067 19.2443C82.0104 19.5959 82.4756 20.0895 82.8023 20.7251C83.129 21.3572 83.2923 22.0959 83.2923 22.9411C83.2923 23.7791 83.129 24.516 82.8023 25.1516C82.4756 25.7837 82.0104 26.2773 81.4067 26.6325C80.8066 26.984 80.0928 27.1598 79.2654 27.1598ZM79.276 25.402C79.6524 25.402 79.9667 25.2955 80.2188 25.0824C80.471 24.8658 80.661 24.571 80.7888 24.1982C80.9202 23.8253 80.9859 23.4009 80.9859 22.9251C80.9859 22.4492 80.9202 22.0249 80.7888 21.652C80.661 21.2791 80.471 20.9844 80.2188 20.7678C79.9667 20.5511 79.6524 20.4428 79.276 20.4428C78.896 20.4428 78.5764 20.5511 78.3172 20.7678C78.0615 20.9844 77.868 21.2791 77.7366 21.652C77.6088 22.0249 77.5448 22.4492 77.5448 22.9251C77.5448 23.4009 77.6088 23.8253 77.7366 24.1982C77.868 24.571 78.0615 24.8658 78.3172 25.0824C78.5764 25.2955 78.896 25.402 79.276 25.402Z" fill="#3D64FD"/>
</svg>
